<svg width="32" height="32" viewBox="0 0 32 32" fill="none" xmlns="http://www.w3.org/2000/svg">
<g clip-path="url(#clip0)">
<path d="M31.4911 5.78747C30.7801 6.10275 30.042 6.35147 29.2847 6.53154C30.1192 5.73855 30.7466 4.74669 31.1006 3.6396C31.2016 3.32354 30.8583 3.05024 30.573 3.21947C29.5194 3.8444 28.3845 4.31322 27.1998 4.61305C27.1311 4.63044 27.0601 4.63926 26.989 4.63926C26.7732 4.63926 26.5634 4.55914 26.3984 4.41371C25.1379 3.30279 23.5167 2.69096 21.8336 2.69096C21.1053 2.69096 20.37 2.80448 19.648 3.0284C17.411 3.72222 15.685 5.56746 15.1435 7.84406C14.9403 8.69798 14.8853 9.55268 14.9799 10.3844C14.9907 10.4799 14.9455 10.5466 14.9177 10.5779C14.8688 10.6328 14.7994 10.6642 14.7274 10.6642C14.7194 10.6642 14.7111 10.6638 14.7029 10.6631C9.80625 10.2081 5.39067 7.84905 2.26951 4.02049C2.11035 3.82521 1.80514 3.84916 1.67828 4.06676C1.06707 5.11533 0.744073 6.31465 0.744073 7.53503C0.744073 9.4053 1.49548 11.1678 2.80066 12.4527C2.2518 12.3226 1.72056 12.1176 1.22709 11.8436C0.988351 11.7109 0.694609 11.8814 0.691254 12.1545C0.657082 14.9329 2.28378 17.4052 4.72064 18.5184C4.67156 18.5196 4.62249 18.5201 4.57334 18.5201C4.18706 18.5201 3.79595 18.4828 3.41101 18.4093C3.14215 18.3579 2.91629 18.613 2.99977 18.8736C3.79073 21.343 5.91691 23.1632 8.46127 23.5765C6.3496 24.994 3.89051 25.7418 1.33109 25.7418L0.533187 25.7413C0.287348 25.7413 0.0794268 25.9015 0.0167774 26.1397C-0.0449359 26.3742 0.0687382 26.6216 0.278376 26.7435C3.16244 28.422 6.45212 29.309 9.79322 29.309C12.7178 29.309 15.4534 28.7287 17.9243 27.5841C20.1894 26.5348 22.1911 25.0349 23.8737 23.126C25.4411 21.3478 26.6668 19.295 27.5165 17.0248C28.3266 14.8608 28.7548 12.5517 28.7548 10.3472V10.2422C28.7547 9.88824 28.9148 9.55518 29.1941 9.32845C30.254 8.4679 31.177 7.4549 31.9373 6.31761C32.138 6.01732 31.8214 5.64095 31.4911 5.78747Z" fill="#76A9EA"/>
</g>
<defs>
<clipPath id="clip0">
<rect width="32" height="32" fill="white"/>
</clipPath>
</defs>
</svg>
